<svg id="Ebene_1" data-name="Ebene 1" xmlns="http://www.w3.org/2000/svg" width="27.33mm" height="30.94mm" viewBox="0 0 77.47 87.69">
  <path d="M38.73,2A23.35,23.35,0,0,0,15.4,25.32l0,.22c-1.71,7.74,15.54,36.88,23.35,49.1,7.81-12.21,25.06-41.33,23.35-49.1l0-.22A23.34,23.34,0,0,0,38.73,2Z" style="fill: #e61d4c"/>
  <path d="M38.73,7.82a17.51,17.51,0,1,1-17.51,17.5A17.51,17.51,0,0,1,38.73,7.82" style="fill: #fff"/>
  <polygon points="36.63 37.69 27.35 29.02 30.59 25.56 35.81 30.44 46.53 14.57 50.45 17.22 36.63 37.69" style="fill: #2aa846"/>
  <g>
    <path d="M42.16,69.16H35.31c1.25,2,2.42,3.91,3.42,5.48C39.74,73.07,40.9,71.21,42.16,69.16Z" style="fill: #e51b4d"/>
    <path d="M59.57,69.16H44.49c-2.68,4.4-4.64,7.43-4.92,7.87l-.84,1.29L37.89,77c-.28-.43-2.24-3.46-4.92-7.86H17.89L0,87.69H77.47Z" style="fill: #e51b4d"/>
  </g>
</svg>
