<?xml version="1.0" standalone="no"?>
<!DOCTYPE svg PUBLIC "-//W3C//DTD SVG 20010904//EN"
 "http://www.w3.org/TR/2001/REC-SVG-20010904/DTD/svg10.dtd">
<svg version="1.0" xmlns="http://www.w3.org/2000/svg"
 width="367.000000pt" height="367.000000pt" viewBox="0 0 367.000000 367.000000"
 preserveAspectRatio="xMidYMid meet">
<metadata>
Created by potrace 1.11, written by Peter Selinger 2001-2013
</metadata>
<g transform="translate(0.000000,367.000000) scale(0.100000,-0.100000)"
fill="#000000" stroke="none">
<path d="M1695 3573 c-348 -56 -644 -291 -770 -612 -56 -145 -83 -371 -59
-507 47 -273 318 -830 772 -1589 69 -116 141 -234 160 -263 l34 -54 23 34 c41
61 332 551 435 733 137 244 355 681 417 840 89 226 98 269 96 431 -4 224 -42
368 -144 533 -98 158 -232 279 -404 362 -141 69 -230 90 -395 94 -74 2 -148 1
-165 -2z m283 -249 c255 -53 455 -227 545 -477 24 -68 30 -103 34 -203 7 -153
-11 -240 -75 -367 -37 -76 -61 -108 -136 -182 -146 -145 -278 -203 -481 -212
-102 -5 -134 -2 -204 16 -262 66 -449 246 -533 511 -33 107 -33 292 1 400 115
372 476 591 849 514z"/>
<path d="M1935 2725 c-121 -179 -222 -325 -226 -325 -4 0 -52 43 -107 95 -55
52 -104 95 -108 95 -5 0 -37 -31 -71 -68 l-61 -68 190 -178 c104 -98 193 -175
198 -170 7 9 319 468 488 721 l81 121 -78 51 c-42 28 -79 51 -82 51 -3 0 -104
-146 -224 -325z"/>
<path d="M588 397 l-367 -382 804 -3 c443 -1 1168 -1 1612 0 l807 3 -369 383
-370 382 -318 -2 -319 -3 -113 -180 c-62 -98 -117 -181 -121 -182 -5 -2 -61
80 -124 182 l-115 185 -320 -1 -320 -1 -367 -381z"/>
</g>
</svg>
